<?xml version="1.0" encoding="utf-8"?>
<!-- Generator: Adobe Illustrator 24.2.3, SVG Export Plug-In . SVG Version: 6.00 Build 0)  -->
<svg version="1.1" id="Layer_1" xmlns="http://www.w3.org/2000/svg" xmlns:xlink="http://www.w3.org/1999/xlink" x="0px" y="0px"
	 viewBox="0 0 1143 1143" style="enable-background:new 0 0 1143 1143;" xml:space="preserve">
<style type="text/css">
	.st0{fill:#100E0E;}
</style>
<g>
	<g>
		<path class="st0" d="M57.21,424.37c14.26,0,25.82-11.56,25.82-25.85c0-14.26-11.56-25.81-25.82-25.81
			c-14.27,0-25.81,11.55-25.81,25.81C31.4,412.81,42.94,424.37,57.21,424.37"/>
		<path class="st0" d="M1061.14,410.48c0,14.27,11.56,25.83,25.82,25.83c14.25,0,25.81-11.56,25.81-25.83
			c0-14.27-11.56-25.82-25.81-25.82C1072.7,384.65,1061.14,396.2,1061.14,410.48"/>
		<path class="st0" d="M68.93,355.23c7.91,3.07,16.87-0.87,19.93-8.8c1.04-2.68,108.1-268.99,436.92-303.78
			c2.88-0.34,285.95-31.02,438.56,163.79c0.32,0.33,32.16,33.84,56.77,76.62c12.9,22.42,22.92,42.84,14.74,65.68
			c-0.54,1.5-4.94,13.2-11.04,29.42c-13.87,36.95-36.5,97.17-42.93,115.02c-4.72,13.1-9.58,21.85-13.21,26.92
			c-1.32-5.27-2.72-14.25-3.05-28.99c-0.2-8.51-7.47-15.58-15.74-15.07c-8.51,0.18-15.25,7.23-15.07,15.74
			c0.14,6.32,0.46,13.18,1.21,19.99c-2.88,2.46-5.86,4.88-8.98,7.28c-5.32,4.24-10.25,7.71-14.69,10.62
			c-4.46,2.89-7.31,3.93-8.62,3.14c-1.33-0.8-0.86-3.22,1.35-7.29c2.24-4.02,4.8-8.61,7.65-13.72c2.9-5.07,5.58-10,8.05-14.69
			c2.49-4.7,3.46-8.1,2.96-10.22c-0.54-2.08-1.82-3.95-3.93-5.68c-2.12-1.73-4.46-3.16-7.08-4.33c-2.6-1.15-5.21-1.95-7.82-2.33
			c-2.61-0.38-4.46-0.3-5.5,0.19c-1.29,0.55-4.27,2.89-8.81,7.08c-4.57,4.17-9.5,8.89-14.74,14.1c-5.19,5.22-10.2,10.13-14.86,14.73
			c-4.74,4.58-7.73,7.21-9.04,8.03c0.26-1.09,0.9-2.69,1.95-4.89c1.04-2.25,2.17-4.72,3.37-7.47c1.13-2.77,2.05-5.5,2.76-8.25
			c0.62-2.73,0.68-5.04,0.14-6.88c-0.25-1.81-1.17-3.84-2.72-6.03c-1.6-2.21-3.34-4.04-5.28-5.52c-2.02-1.44-4.09-2.36-6.3-2.75
			c-2.21-0.38-4.14,0.23-5.68,1.76c-3.15,2.63-5.97,6.36-8.42,11.2c-1.24,2.4-2.38,4.83-3.43,7.29c-2.35,1.71-5.01,3.26-7.99,4.66
			c-6.17,2.88-12.49,3.92-19.02,3.16c0.52-6.26-0.65-11.93-3.54-16.86c-2.89-4.96-7.69-8.25-14.49-9.82
			c-0.54-3.14-2.31-5.62-5.32-7.47c-2.97-1.82-6.31-2.72-9.98-2.72c-5.77,0-11.11,1.5-16.07,4.54c-5.01,2.96-9.38,6.86-13.17,11.53
			c-3.14,3.88-5.83,8.13-8.07,12.67c-6.09,5.11-12.56,10.81-19.36,17.15c-8.55,7.82-16.51,15.48-23.98,22.95
			c-7.44,7.45-13.71,13.96-18.83,19.44c-5.09,5.48-8.02,8.6-8.81,9.41c6.55-10.21,13.01-19.27,19.38-27.28
			c6.47-7.99,12.06-14.92,16.89-20.78c4.86-5.88,8.84-10.82,11.98-14.7c3.14-3.95,4.71-6.96,4.71-9.03c0-1.83-0.64-3.76-1.97-5.72
			c-1.27-1.95-3.01-3.57-5.08-4.87c-2.11-1.32-4.32-2.34-6.66-3.16c-2.38-0.74-4.46-1.03-6.31-0.74c-0.8,0.22-1.76,1.1-2.93,2.51
			c-1.18,1.43-2.81,3.07-4.9,4.91c-3.42,3.16-7.07,6.68-10.98,10.61c-3.93,3.9-7.8,7.61-11.58,11.16
			c-3.79,3.55-7.32,6.61-10.58,9.21c-3.29,2.6-5.95,4.31-8.05,5.13c-2.85,1.05-3.14-0.05-0.79-3.35c2.37-3.25,5.42-7.19,9.22-11.77
			c3.78-4.55,7.4-9.2,10.79-13.91c3.42-4.72,4.72-7.98,3.92-9.83c-0.25-1.83-1.49-3.92-3.72-6.24c-2.19-2.4-4.69-4.42-7.42-6.11
			c-2.76-1.69-5.52-2.81-8.26-3.33c-2.73-0.5-4.91-0.13-6.45,1.2c-3.43,2.86-7.16,7.12-11.2,12.74
			c-4.04,5.64-7.84,11.34-11.39,17.28c-3.52,5.83-6.41,11.36-8.63,16.46c-2.22,5.08-3.19,8.7-2.94,10.79
			c0.54,2.34,1.91,4.51,4.13,6.47c2.23,1.94,4.65,3.66,7.27,5.09c2.58,1.43,5.21,2.61,7.82,3.5c2.62,0.96,4.7,1.41,6.27,1.41
			c3.16,0,7.21-1.97,12.17-5.88c4.98-3.9,10.06-8.36,15.31-13.34c-9.15,14.16-18.62,29.22-28.43,45.34
			c-9.82,16.06-18.92,31.18-27.28,45.27c-8.36,14.1-15.62,26.45-21.76,36.9c-6.15,10.44-10.13,17.15-12,19.99
			c-2.56,3.7-3.25,6.47-1.94,8.46c1.3,1.93,3.54,3.36,6.68,4.32c3.1,0.88,6.55,1.28,10.19,1.16c3.67-0.14,6.69-0.74,9.06-1.77
			c2.33-1.04,5.01-4.91,8.02-11.56c3.02-6.67,7-15,11.98-24.93c4.97-9.94,11.22-20.97,18.84-33.16
			c7.57-12.12,17.26-24.53,29.04-37.07C672,566.68,681.61,557,690.9,548.1c9.29-8.87,17.53-16.66,24.71-23.34
			c3.33-3.08,6.38-5.87,9.19-8.4c-0.66,5.33,0.4,10.15,3.18,14.48c2.9,4.46,6.48,8.1,10.79,10.96c4.32,2.88,8.75,4.88,13.34,5.92
			c4.59,1.03,8.45,1.03,11.56,0c7.08-2.1,13.16-5.23,18.27-9.38c5.11-4.19,9.34-8.92,12.75-14.16c11.05-1.33,20.26-4.14,27.64-8.43
			c-0.28,1.2-0.53,2.38-0.76,3.54c-0.9,4.6-1.25,7.77-0.98,9.58c0.77,4.46,2.97,7.82,6.65,10.03c3.65,2.22,7.18,3.36,10.6,3.36
			c2.06,0,5.57-1.96,10.39-5.92c4.87-3.93,9.68-8.22,14.55-12.91c4.82-4.72,11.03-11.16,18.6-19.23c0,0.26-0.71,1.72-2.12,4.31
			c-1.48,2.59-2.94,5.48-4.53,8.6c-1.59,3.18-2.94,6.32-4.12,9.41c-1.17,3.17-1.63,5.26-1.38,6.31c0.27,2.84,1.9,5.68,4.94,8.41
			c2.98,2.75,6.7,5.01,11.16,6.7c4.43,1.69,9.08,2.86,13.92,3.52c4.83,0.64,9.24,0.18,13.14-1.36c2.6-0.77,6.31-3.28,10.98-7.45
			c4.73-4.2,9.6-8.85,14.74-13.93c0.27-0.27,0.53-0.53,0.79-0.8c3.66,14.09,10.54,25.52,23.56,27.65c1.31,0.21,2.59,0.32,3.85,0.32
			c22.34,0,37.42-32.25,44.61-52.23c6.41-17.78,28.96-77.81,42.79-114.62c6.18-16.44,10.63-28.3,11.19-29.84
			c13.66-38.14-4.82-70.23-17.04-91.47c-26.43-45.97-59.8-81.07-60.21-81.4C825.17-21.17,534.46,10.62,522.36,12.01
			C174.46,48.81,61.21,332.46,60.11,335.32C57.05,343.26,61,352.17,68.93,355.23 M760.55,532.81c-4.19,2.04-6.95,2.04-8.24,0
			c-2.35-2.65-2.64-6.85-0.82-12.77c1.85-5.88,4.98-11.81,9.46-17.87c0.76,4.72,2.2,8.87,4.28,12.39c2.09,3.53,4.55,6.34,7.48,8.44
			C768.79,527.45,764.71,530.73,760.55,532.81"/>
		<path class="st0" d="M1117.16,460.57c-1.96-8.28-10.26-13.34-18.53-11.46c-8.28,1.95-13.41,10.24-11.47,18.53
			c4.61,19.66,106.77,483.12-413.58,625.79C670.25,1094.2,338,1168.84,125.32,885c-0.93-1.37-92.74-138.59-77.17-295.97
			c3.43-31.17,22.21-116.45,67.1-136.4c69.94-30.22,150.79-61.34,191.25-72.39c-7.05,9.5-14.15,18.98-20.99,28.58
			c-10.21,14.42-20.25,29.05-30.21,43.97c-9.95,14.89-20.07,30.03-30.41,45.29c-10.32,15.3-21.13,30.96-32.36,46.93
			c-5.24,7.28-11.72,14.81-19.42,22.52c-7.69,7.69-16.01,13.68-24.92,17.83c-8.88,4.22-17.8,5.51-26.69,3.93
			c-8.87-1.57-17.12-7.95-24.69-19.23c-1.56-2.85-3.21-4.11-4.94-3.72c-1.68,0.38-1.73,2.21-0.18,5.3
			c3.41,6.81,7.57,12.79,12.55,18.04c5,5.24,10.46,9.37,16.46,12.36c6.05,3,12.63,4.76,19.83,5.12c7.19,0.39,14.58-0.88,22.18-3.71
			c11.49-4.21,22.79-11.82,33.93-22.74c11.11-11.04,22.06-23.84,32.96-38.46c10.84-14.63,21.53-30.41,31.97-47.28
			c10.44-16.9,20.66-33.33,30.58-49.43c9.95-16.09,19.64-31.05,29.05-44.97c7.46-10.94,14.68-19.78,21.82-27.47
			c1.45-1.12,2.69-2.44,3.67-4.04c0.65-0.66,1.32-1.54,1.97-2.17c0.79-0.84,0.68-1.94,0.09-3.22c1.33-7.88-3.44-15.57-11.32-17.51
			c-30.72-7.57-174.17,52.14-234.57,78.23c-70.45,31.33-84.78,156-85.38,161.45C0.8,754.37,95.77,896.36,100.24,902.9
			c146.9,196.07,347.26,230.62,470.19,230.62c65.77,0,109.38-9.89,110.79-10.23C1231.12,972.54,1118.36,465.68,1117.16,460.57"/>
		<path class="st0" d="M357.72,342.76c2.57-1.19,5.14-2.83,7.63-4.94c2.45-2.09,4.49-4.61,6.08-7.67c1.56-3,2.2-6.21,1.96-9.58
			c0-1.58-0.93-3.29-2.75-5.12c-1.84-1.83-3.93-3.52-6.26-5.08c-2.37-1.59-4.71-2.88-7.08-3.92c-2.37-1.03-4.05-1.6-5.09-1.6
			c-2.1,0-4.3,0.86-6.67,2.55c-2.37,1.72-4.51,3.69-6.47,5.92c-2,2.22-3.54,4.57-4.71,7.07c-1.2,2.47-1.78,4.6-1.78,6.5
			c0,1.49,0.72,3.2,2.15,5.04c1.44,1.85,3.13,3.6,5.13,5.32c1.92,1.69,4.02,3.19,6.25,4.48c2.22,1.35,3.99,2.12,5.3,2.35
			C353.01,344.42,355.08,343.92,357.72,342.76"/>
		<path class="st0" d="M309.84,558.69c4.17-1.02,8.55-3.42,13.16-7.07c4.53-3.65,8.57-7.71,12.15-12.15
			c3.51-4.43,6.4-9.03,8.61-13.72c2.23-4.73,3.33-8.78,3.33-12.18c0-3.4-1.1-6.42-3.33-8.99c-2.21-2.67-5.23-4.74-9.02-6.29
			c-3.8-1.6-8.11-2.71-12.93-3.33c-4.85-0.64-10-0.61-15.52,0.21c2.35-3.39,5.23-6.29,8.65-8.65c3.37-2.37,5.09-5.35,5.09-9.02
			c0-1.81-0.67-3.78-1.97-5.91c-1.32-2.1-2.94-3.99-4.89-5.68c-1.96-1.68-4.13-3.05-6.46-4.1c-2.38-1.03-4.6-1.43-6.68-1.21
			c-3.16,0.56-6.32,2.2-9.61,4.93c-3.28,2.76-5.96,6.06-8.04,9.98c-2.1,3.98-3.33,8.08-3.73,12.37c-0.39,4.32,0.58,8.17,2.92,11.58
			c2.13,3.11,5.19,5.02,9.21,5.67c4.07,0.7,8.08,0.94,11.96,0.77c3.97-0.08,7.49-0.24,10.63-0.39c3.13-0.09,4.94,0.74,5.46,2.61
			c0.26,1.8-0.85,4.51-3.31,8.02c-2.48,3.52-5.36,7.04-8.6,10.55c-3.31,3.55-6.57,6.46-9.84,8.65c-3.28,2.25-5.56,2.83-6.88,1.77
			c-0.77-0.79-0.61-2.07,0.57-3.93c1.17-1.79,2.66-3.72,4.35-5.69c1.71-1.94,3.39-3.91,5.08-5.88c1.71-1.94,2.98-3.34,3.75-4.08
			c2.62-2.89,3.54-5.34,2.76-7.31c-0.82-1.94-3.41-1.87-7.85,0.23c-2.87,1.31-5.76,2.93-8.64,4.88c-2.85,1.98-5.49,4.11-7.83,6.27
			c-2.37,2.28-4.24,4.57-5.69,6.88c-1.43,2.36-2.17,4.43-2.17,6.31c0,2.62,1.04,5.53,3.14,8.78c2.09,3.31,4.77,6.24,8.07,8.86
			c3.24,2.65,6.97,4.58,11.15,5.86C301.08,559.62,305.38,559.77,309.84,558.69"/>
		<path class="st0" d="M531.04,526.12c3.93-4.7,7.73-9.36,11.4-13.9c2.15-2.72,4.03-5.04,5.65-6.98c3.78,0.6,7.49,0.82,11.22,0.66
			c3.89-0.08,7.43-0.24,10.57-0.39c3.16-0.09,4.97,0.74,5.46,2.61c0.27,1.8-0.82,4.51-3.31,8.02c-2.48,3.52-5.36,7.04-8.62,10.55
			c-3.28,3.55-6.54,6.46-9.8,8.65c-3.29,2.25-5.56,2.83-6.88,1.76c-0.75-0.78-0.61-2.07,0.6-3.93c1.19-1.79,2.6-3.72,4.33-5.69
			c1.69-1.94,3.39-3.91,5.08-5.88c1.7-1.94,2.95-3.34,3.74-4.08c2.59-2.89,3.53-5.34,2.72-7.31c-0.77-1.94-3.36-1.87-7.87,0.23
			c-2.85,1.31-5.71,2.93-8.61,4.88c-2.86,1.98-5.49,4.11-7.82,6.27c-2.38,2.28-4.25,4.57-5.7,6.88c-1.43,2.36-2.16,4.43-2.16,6.31
			c0,2.62,1.04,5.53,3.14,8.78c2.09,3.31,4.77,6.24,8.05,8.86c3.22,2.65,6.96,4.58,11.15,5.86c4.21,1.33,8.51,1.48,12.98,0.4
			c4.15-1.02,8.56-3.42,13.13-7.07c4.58-3.65,8.61-7.7,12.16-12.15c3.53-4.43,6.42-9.03,8.64-13.72c2.21-4.73,3.36-8.78,3.36-12.18
			c0-3.4-1.14-6.42-3.36-8.99c-2.22-2.67-5.24-4.74-9-6.29c-3.81-1.6-8.16-2.71-12.96-3.33c-4.85-0.64-10.03-0.61-15.48,0.21
			c2.31-3.39,5.21-6.29,8.62-8.65c3.39-2.36,5.1-5.35,5.1-9.02c0-1.81-0.65-3.78-1.96-5.91c-1.33-2.1-2.94-3.99-4.9-5.68
			c-1.96-1.68-4.13-3.05-6.49-4.1c-2.37-1.03-4.57-1.43-6.66-1.21c-3.16,0.56-6.33,2.2-9.6,4.93c-3.28,2.76-5.96,6.06-8.04,9.98
			c-2.13,3.98-3.34,8.08-3.74,12.37c-0.38,4.32,0.59,8.17,2.94,11.58c0.2,0.3,0.42,0.57,0.63,0.85c-2.87,2.55-5.75,5.04-8.65,7.42
			c-4.85,3.87-9.25,7.36-13.16,10.36c-3.92,3.02-7.26,5.37-10.01,7.05c-2.77,1.74-4.49,2.31-5.32,1.79c-1-0.81-0.77-2.62,0.83-5.5
			c1.55-2.89,3.52-6.14,5.87-9.83c2.34-3.65,4.58-7.22,6.67-10.77c2.07-3.53,3.14-6.32,3.14-8.4c0.26-1.82-0.26-3.58-1.56-5.11
			c-1.31-1.58-2.97-2.89-4.91-3.92c-1.96-1.07-4.12-1.96-6.48-2.74c-2.35-0.79-4.55-1.45-6.67-1.98c-2.6-0.24-5.72,1.19-9.42,4.32
			c-0.77-2.33-2.29-4.46-4.49-6.28c-2.22-1.83-4.73-3.38-7.43-4.68c-2.8-1.31-5.55-2.2-8.27-2.79c-2.74-0.48-5.04-0.62-6.88-0.35
			c-2.89,0.28-6.86,2.42-11.96,6.47c-5.1,4.05-9.99,8.8-14.71,14.31c-1.7,1.99-3.31,4.03-4.82,6.1c-2.48,1.57-6.15,4.17-11.09,7.83
			c-6.12,4.55-12.53,9.2-19.2,13.95c-6.66,4.72-12.9,8.74-18.63,12.15c-5.79,3.38-9.42,4.58-11.02,3.5
			c-1.81-1.31-2.12-3.72-0.95-7.21c1.17-3.52,3.32-7.67,6.48-12.39c3.14-4.71,6.96-9.8,11.54-15.28
			c4.59-5.48,9.25-10.71,13.92-15.69c4.72-4.97,9.29-9.52,13.74-13.73c4.46-4.23,8.11-7.32,11.02-9.45
			c21.68-1.05,44.03-1.65,67.07-1.71c23.01-0.14,45.57-0.14,67.64,0c22.1,0.06,43.03,0.28,62.81,0.54
			c19.72,0.26,37.12,0.46,52.17,0.6c15.05,0.12,27.12,0.12,36.28,0c9.15-0.14,14.25-0.7,15.28-1.79c1.58-1.77,1.1-3.85-1.34-6.07
			c-2.49-2.22-5.96-4.33-10.42-6.28c-4.46-1.95-9.36-3.64-14.7-5.1c-5.35-1.43-10.29-2.16-14.74-2.16c-2.32,0-8.62,0.39-18.83,1.21
			c-10.18,0.76-22.97,1.71-38.47,2.71c-15.41,1.07-32.67,2.1-51.72,3.15c-19.11,1.08-38.59,1.83-58.47,2.33
			c-15.73,0.54-31.13,0.93-46.31,1.19c-15.17,0.29-29.4,0.4-42.77,0.4c-2.07-3.11-4.96-5.95-8.63-8.42
			c-3.65-2.49-7.03-3.74-10.17-3.74c-3.42,0-6.96,1.16-10.64,3.52c-3.64,2.35-7.56,5.4-11.76,9c-15.18,0.52-23.42,1.46-24.73,2.79
			c-2.88,3.14,1.83,6.02,14.14,8.63c-6.28,8.09-11.92,17.22-16.87,27.25c-4.97,10.08-8.14,19.49-9.43,28.24
			c-1.3,8.74-0.3,16.08,2.94,21.96c3.28,5.92,10.24,8.84,20.99,8.84c5.23,0,11.44-2.08,18.63-6.26c7.21-4.2,14.16-8.95,20.78-14.32
			c1.64-1.31,3.23-2.62,4.76-3.92c0.05,0.32,0.09,0.65,0.16,0.97c1.07,4.17,3.15,7.83,6.28,10.98c3.15,3.12,6.74,5.81,10.8,8
			c4.03,2.28,8.16,3.77,12.35,4.55c4.16,0.79,7.69,0.93,10.59,0.38c3.15-1.02,6.28-2.66,9.39-4.94c3.16-2.19,6.41-4.48,9.82-6.83
			c4.46,3.69,9.77,6.39,15.91,8.24c6.13,1.85,10.9,2.36,14.32,1.61c2.63-0.54,5.86-2.66,9.83-6.32
			C523.17,535.04,527.13,530.84,531.04,526.12 M479.07,502.58c-2.73,5.27-6.1,10.35-10.02,15.3c-3.93,5.01-8.04,9.11-12.37,12.37
			c-4.29,3.27-7.91,4.12-10.8,2.57c-1.3-0.54-1.35-2.31-0.18-5.33c1.17-3.01,2.94-6.37,5.31-10.18c2.35-3.79,5.16-7.77,8.44-11.96
			c3.27-4.2,6.47-7.71,9.6-10.6c3.15-2.89,6.04-4.84,8.64-5.9c2.59-1.05,4.45-0.36,5.49,1.97
			C483.18,493.44,481.82,497.37,479.07,502.58"/>
		<polygon class="st0" points="346.56,819.1 346.56,774.82 365.93,709.41 350.73,709.41 339.42,755.16 339.11,755.16 327.2,709.41 
			311.26,709.41 331.36,774.82 331.36,819.1 		"/>
		<path class="st0" d="M382.32,709.41v82.56c0,22.5,11.03,29.35,26.21,29.35c14.9,0,25.93-6.85,25.93-29.35v-82.56h-15.22v82.42
			c0,6.88-1.61,15.8-10.71,15.8c-9.39,0-11.05-8.92-11.05-15.8v-82.42H382.32z"/>
		<path class="st0" d="M509.98,739.53c0-18.33-11.77-30.12-28.32-30.12h-24.6V819.1h15.22v-50.21h3.59l20.09,50.21h17.43
			l-22.19-52.43C503.71,763.21,509.98,750.72,509.98,739.53 M472.28,755.9v-33.5h5.21c10.74,0,16.54,7,16.54,16.08
			C494.03,751.32,487.19,755.9,472.28,755.9"/>
		<polygon class="st0" points="559.73,819.1 559.73,723.12 579.09,723.12 579.09,709.41 525.15,709.41 525.15,723.12 544.52,723.12 
			544.52,819.1 		"/>
		<polygon class="st0" points="597.86,709.41 597.86,819.1 637.5,819.1 637.5,805.37 613.07,805.37 613.07,709.41 		"/>
		<path class="st0" d="M671.14,709.41L648.05,819.1h14.43l4.32-22.65h24l4.33,22.65h15.94l-24.72-109.69H671.14z M669.2,784.24
			l9.55-50.1h0.3l9.52,50.1H669.2z"/>
		<path class="st0" d="M776.16,739.53c0-18.33-11.77-30.12-28.3-30.12h-24.6V819.1h15.23v-50.21h3.56l20.09,50.21h17.47l-22.2-52.43
			C769.92,763.21,776.16,750.72,776.16,739.53 M738.49,755.9v-33.5h5.22c10.72,0,16.49,7,16.49,16.08
			C760.2,751.32,753.36,755.9,738.49,755.9"/>
		<rect x="793.29" y="709.41" class="st0" width="15.18" height="109.69"/>
		<rect x="254.97" y="754.25" class="st0" width="35.79" height="9.61"/>
		<rect x="837.15" y="754.25" class="st0" width="35.8" height="9.61"/>
	</g>
</g>
</svg>
